<svg width="141" height="51" viewBox="0 0 141 51" fill="none" xmlns="http://www.w3.org/2000/svg">
<path d="M16.7917 43.9491H28.052V49.4876C28.052 50.1305 27.5262 50.6563 26.8833 50.6563H17.9604C17.3176 50.6563 16.7917 50.1305 16.7917 49.4876V43.9491Z" fill="url(#paint0_linear_280_2)"/>
<path d="M16.7917 48.0697H28.052V39.4605C28.2312 35.5241 27.9484 30.5655 27.9464 27.8164C27.9412 21.1553 27.6323 17.6692 31.8245 13.9561C35.2445 10.9265 40.6284 10.0234 45.2453 12.8411C48.6412 14.9141 46.4059 15.44 51.4658 15.3871C54.4084 15.3563 57.3892 15.3577 60.3316 15.3943C59.2363 9.0273 51.9754 3.11037 46.1139 1.1824C37.6036 -1.61676 29.4757 1.30084 24.4306 5.78017C16.7391 12.6091 16.6137 21.8948 16.808 33.0633C16.7973 33.1264 16.7917 33.1913 16.7917 33.2573V48.0697Z" fill="url(#paint1_linear_280_2)"/>
<path d="M29.5151 42.6225C38.7477 46.8665 49.3372 44.8706 55.9294 37.275C57.2147 35.7941 60.2176 32.085 60.2274 29.5291C56.9143 29.5733 53.5953 29.5069 50.2848 29.5128C46.4567 29.5196 48.4709 30.8371 43.795 32.8578C41.1329 34.0082 37.9153 34.0521 35.0987 33.0069C32.3563 31.9892 31.2219 30.236 29.5476 28.5633L29.5151 42.6225Z" fill="url(#paint2_linear_280_2)"/>
<path d="M0.0849192 3.52997C0.0849192 12.4727 -2.1876 11.335 16.7793 11.1343L18.1841 11.1045C19.0111 9.82088 19.5861 8.72451 20.495 7.62859C24.6648 2.60052 26.7274 2.55014 30.2354 0.176753C23.8072 -0.214006 12.5907 0.172382 5.20994 0.122803C1.54297 0.098189 0.0849192 -0.405693 0.0849192 3.52997Z" fill="url(#paint3_linear_280_2)"/>
<path fill-rule="evenodd" clip-rule="evenodd" d="M66.7812 33.223V13.7116C66.7812 13.3051 66.9203 12.9521 67.2037 12.6633C67.4872 12.369 67.8294 12.2246 68.236 12.2246H80.1955C86.512 12.2246 89.6731 15.1343 89.6731 20.9588C89.6731 26.7835 86.512 29.6932 80.1955 29.6932H72.6861V33.223C72.6861 33.6296 72.5471 33.9772 72.258 34.2608C71.9693 34.5496 71.6216 34.694 71.2152 34.694H68.2682C67.8616 34.694 67.514 34.5496 67.2197 34.2608C66.9256 33.9772 66.7812 33.6296 66.7812 33.223ZM72.6861 25.2592H78.4091C80.1632 25.2592 81.4951 24.9649 82.4043 24.3767C83.3137 23.7829 83.7682 22.649 83.7682 20.9588C83.7682 19.2742 83.3137 18.1349 82.4043 17.5411C81.4951 16.9529 80.1632 16.6586 78.4091 16.6586H72.6861V25.2592ZM90.6305 15.1879V13.7116C90.6305 13.2838 90.7695 12.9308 91.053 12.6471C91.3311 12.3637 91.6894 12.2246 92.1172 12.2246H112.003C112.431 12.2246 112.784 12.3637 113.068 12.6471C113.351 12.9308 113.49 13.2838 113.49 13.7116V15.1879C113.49 15.6157 113.351 15.9686 113.068 16.2414C112.784 16.5195 112.431 16.6586 112.003 16.6586H105.013V33.2499C105.013 33.6618 104.868 34.004 104.585 34.2769C104.296 34.5549 103.948 34.694 103.542 34.694H100.579C100.172 34.694 99.8247 34.5549 99.5357 34.2769C99.2469 34.004 99.1078 33.6618 99.1078 33.2499V16.6586H92.1172C91.6894 16.6586 91.3311 16.5195 91.053 16.2414C90.7695 15.9686 90.6305 15.6157 90.6305 15.1879Z" fill="white"/>
<path fill-rule="evenodd" clip-rule="evenodd" d="M119.198 32.4111C117.262 30.5605 116.294 27.6993 116.294 23.8324C116.294 19.9601 117.262 17.0988 119.198 15.243C121.134 13.3923 124.043 12.4618 127.921 12.4618H131.413C133.783 12.4618 135.879 13.0821 137.703 14.3122C139.527 15.5477 140.436 17.2326 140.436 19.3718C140.436 19.9922 140.254 20.4307 139.89 20.6982C139.522 20.9657 139.168 21.0994 138.826 21.0994H136.96C135.997 21.0994 135.253 20.5217 134.719 19.3718C133.948 17.7246 132.659 16.8955 130.862 16.8955H128.076C125.787 16.8955 124.236 17.3875 123.423 18.3717C122.604 19.3505 122.198 21.1688 122.198 23.8217C122.198 26.4744 122.604 28.2982 123.423 29.2824C124.236 30.2718 125.787 30.7639 128.076 30.7639H131.194C132.991 30.7639 134.269 29.9402 135.034 28.2875C135.564 27.1322 136.318 26.5494 137.286 26.5494H139.152C139.644 26.5494 140.035 26.7312 140.318 27.1001C140.607 27.4638 140.752 27.8596 140.752 28.2875C140.752 30.4322 139.842 32.117 138.024 33.3417C136.205 34.5718 134.114 35.1816 131.74 35.1816H127.921C124.043 35.1816 121.134 34.2617 119.198 32.4111Z" fill="white"/>
<path fill-rule="evenodd" clip-rule="evenodd" d="M105.546 20.4515V24.8852H111.268C111.696 24.8852 112.049 24.7462 112.333 24.4681C112.616 24.1955 112.755 23.8423 112.755 23.4145V21.9387C112.755 21.5104 112.616 21.1579 112.333 20.874C112.049 20.5906 111.696 20.4515 111.268 20.4515H105.546Z" fill="#B1B1B1" fill-opacity="0.42"/>
<path fill-rule="evenodd" clip-rule="evenodd" d="M105.692 29.8164V34.2501H111.415C111.842 34.2501 112.196 34.111 112.479 33.8329C112.763 33.5603 112.901 33.2072 112.901 32.7793V31.3035C112.901 30.8752 112.763 30.5227 112.479 30.2388C112.196 29.9554 111.842 29.8164 111.415 29.8164H105.692Z" fill="#B1B1B1" fill-opacity="0.42"/>
<path fill-rule="evenodd" clip-rule="evenodd" d="M68.1124 42.1204C68.1124 42.0816 68.1233 42.0707 68.1509 42.0707C68.2445 42.0707 68.8287 42.0707 68.9665 42.0873C69.1373 42.1093 69.2201 42.2085 69.2475 42.2856C69.2697 42.3517 69.2806 42.4179 69.2806 42.4564C69.2806 42.4949 69.2917 42.5337 69.3248 42.5337C69.3798 42.5337 69.3798 42.4784 69.3798 42.4288C69.3798 42.3903 69.3909 42.1369 69.4018 42.0265C69.4184 41.8557 69.446 41.7179 69.446 41.6848C69.446 41.6517 69.4349 41.6354 69.4129 41.6354C69.3798 41.6354 69.3687 41.6574 69.3413 41.6905C69.286 41.762 69.209 41.7841 69.1043 41.7895C69.027 41.7952 68.95 41.7952 68.8563 41.7952L68.1509 41.8006C68.1178 41.8006 68.1124 41.784 68.1124 41.751V40.3732C68.1124 40.3127 68.1287 40.2962 68.1618 40.2962L69.0107 40.3127C69.2201 40.3181 69.3357 40.4008 69.3744 40.4781C69.4073 40.5552 69.4073 40.6433 69.4073 40.6875C69.4129 40.748 69.4238 40.7756 69.4626 40.7756C69.5011 40.7756 69.5122 40.7426 69.5176 40.6984C69.5285 40.6322 69.5396 40.3072 69.545 40.252C69.5616 40.1087 69.5892 40.0426 69.5892 40.0041C69.5892 39.9766 69.5727 39.9544 69.5507 39.9544C69.5231 39.9544 69.4956 39.9766 69.4626 39.9875C69.4073 40.0041 69.3413 40.0041 69.2366 40.0095C69.1097 40.0151 67.991 40.0151 67.7816 40.0151C67.7045 40.0151 67.5778 40.0095 67.4344 40.0041C67.2912 40.0041 67.1314 39.9986 66.988 39.9986C66.9055 39.9986 66.8613 40.0095 66.8613 40.0537C66.8613 40.0867 66.8998 40.0978 66.9551 40.0978C67.0322 40.0978 67.1258 40.1033 67.1699 40.1142C67.3517 40.1529 67.3959 40.2411 67.407 40.4285C67.4178 40.6048 67.4178 40.7591 67.4178 41.5967V42.5666C67.4178 43.0957 67.4178 43.509 67.3904 43.7404C67.3683 43.9003 67.3408 44.0216 67.2305 44.0436C67.181 44.0547 67.1149 44.0656 67.0322 44.0656C66.9714 44.0656 66.9495 44.0821 66.9495 44.1098C66.9495 44.1537 66.988 44.1648 67.0653 44.1648C67.2746 44.1648 67.6218 44.1483 67.765 44.1483C67.9085 44.1483 68.2556 44.1648 68.6028 44.1648C68.6855 44.1648 68.724 44.1483 68.724 44.1098C68.724 44.0821 68.702 44.0656 68.6303 44.0656C68.5532 44.0656 68.4319 44.0547 68.3549 44.0436C68.1895 44.0216 68.1564 43.9003 68.1398 43.7404C68.1124 43.509 68.1124 43.0957 68.1124 42.5666V42.1204ZM70.526 42.6658C70.526 43.3436 70.7189 43.691 70.9668 43.9058C71.3196 44.2144 71.8211 44.2253 72.0745 44.2253C72.3887 44.2253 72.7579 44.1759 73.0996 43.8892C73.5073 43.5532 73.5626 43.0021 73.5626 42.4784V41.9769C73.5626 41.2661 73.5681 41.1339 73.5735 40.9851C73.5846 40.8196 73.6177 40.7534 73.7498 40.7315C73.8105 40.7206 73.8382 40.7149 73.8932 40.7149C73.9483 40.7149 73.9759 40.6984 73.9759 40.6653C73.9759 40.6322 73.9428 40.6213 73.8767 40.6213C73.6893 40.6213 73.3641 40.6322 73.3091 40.6322C73.3036 40.6322 72.9784 40.6213 72.7303 40.6213C72.6643 40.6213 72.6312 40.6322 72.6312 40.6653C72.6312 40.6984 72.6587 40.7149 72.7138 40.7149C72.769 40.7149 72.8515 40.7206 72.8903 40.7315C73.0446 40.7756 73.0831 40.8253 73.094 40.9851C73.0996 41.1339 73.1051 41.2661 73.1051 41.9769V42.5666C73.1051 43.046 73.094 43.4539 72.8241 43.7073C72.6312 43.8947 72.3831 43.9554 72.1737 43.9554C72.0085 43.9554 71.7769 43.9389 71.5621 43.768C71.3251 43.5806 71.1928 43.3161 71.1928 42.6327V41.9769C71.1928 41.2661 71.1928 41.1339 71.2038 40.9851C71.2149 40.8196 71.2534 40.7534 71.3801 40.7315C71.4409 40.7206 71.4683 40.7149 71.5236 40.7149C71.573 40.7149 71.6007 40.6984 71.6007 40.6653C71.6007 40.6322 71.5675 40.6213 71.4959 40.6213C71.3196 40.6213 70.9944 40.6322 70.8732 40.6322C70.73 40.6322 70.4048 40.6213 70.1458 40.6213C70.0742 40.6213 70.0411 40.6322 70.0411 40.6653C70.0411 40.6984 70.0685 40.7149 70.1238 40.7149C70.1898 40.7149 70.2725 40.7206 70.311 40.7315C70.4654 40.7756 70.5095 40.8196 70.5204 40.9851C70.5315 41.1339 70.526 41.2661 70.526 41.9769V42.6658ZM74.8135 42.8036C74.8135 43.2335 74.8135 43.6026 74.7915 43.8011C74.775 43.9389 74.7473 44.027 74.6481 44.049C74.6041 44.0601 74.549 44.0656 74.4772 44.0656C74.4167 44.0656 74.4002 44.0932 74.4002 44.1152C74.4002 44.1483 74.4333 44.1648 74.4937 44.1648C74.6868 44.1648 74.9953 44.1483 75.089 44.1483C75.1607 44.1483 75.5629 44.1648 75.8441 44.1648C75.9046 44.1648 75.9431 44.1483 75.9431 44.1152C75.9431 44.0932 75.9211 44.0656 75.8826 44.0656C75.8219 44.0656 75.7172 44.0601 75.6456 44.049C75.4967 44.027 75.4747 43.9389 75.4582 43.8011C75.4362 43.6026 75.4308 43.2389 75.4308 42.8036V42.7374C75.4308 42.71 75.4473 42.6989 75.4693 42.6989L75.9046 42.71C75.9377 42.71 75.9653 42.7154 75.9928 42.743C76.0535 42.8147 76.2574 43.1288 76.4503 43.3823C76.7202 43.746 76.9021 43.9663 77.1116 44.0712C77.2382 44.1372 77.3706 44.1648 77.6407 44.1648H78.1034C78.1641 44.1648 78.1972 44.1537 78.1972 44.1152C78.1972 44.0932 78.1752 44.0656 78.1365 44.0656C78.098 44.0656 78.0703 44.0656 78.0209 44.0547C77.9437 44.0381 77.7728 44.0159 77.5029 43.746C77.2108 43.4539 76.8691 43.0295 76.4392 42.5006C76.913 42.1204 77.1116 41.8117 77.1116 41.4645C77.1116 41.1503 76.9076 40.9134 76.7698 40.8196C76.5108 40.6487 76.1582 40.6213 75.8496 40.6213C75.7007 40.6213 75.2599 40.6322 75.0945 40.6322C74.9953 40.6322 74.6868 40.6213 74.4333 40.6213C74.3616 40.6213 74.3231 40.6322 74.3231 40.6653C74.3231 40.6984 74.356 40.7149 74.4056 40.7149C74.4772 40.7149 74.5599 40.7206 74.5985 40.7315C74.7528 40.7756 74.7969 40.8253 74.808 40.9851C74.8135 41.1339 74.8135 41.2661 74.8135 41.9769V42.8036ZM75.4308 40.9465C75.4308 40.9077 75.4417 40.8912 75.4747 40.8803C75.5244 40.8692 75.6401 40.8638 75.7614 40.8638C76.0478 40.8638 76.4999 41.0346 76.4999 41.6959C76.4999 42.0816 76.3345 42.2856 76.1856 42.3903C76.1031 42.451 76.0369 42.4675 75.8441 42.4675C75.7229 42.4675 75.5795 42.4564 75.4747 42.4233C75.4417 42.4068 75.4308 42.3903 75.4308 42.3406V40.9465ZM78.8419 41.6132H78.8585C78.9523 41.6959 79.4638 42.2636 79.9928 42.7705C80.4999 43.2611 81.1051 43.8396 81.4083 44.1206C81.4579 44.1702 81.5249 44.2199 81.6076 44.2199C81.6461 44.2199 81.6846 44.1759 81.6846 44.0712L81.7399 41.1174C81.7453 40.8527 81.7839 40.77 81.9162 40.7315C81.9767 40.7149 82.0152 40.7149 82.0649 40.7149C82.1202 40.7149 82.1476 40.6929 82.1476 40.6653C82.1476 40.6267 82.1036 40.6213 82.0374 40.6213C81.8004 40.6213 81.6187 40.6322 81.5634 40.6322C81.4579 40.6322 81.1989 40.6213 80.9453 40.6213C80.8737 40.6213 80.8241 40.6267 80.8241 40.6653C80.8241 40.6929 80.8406 40.7149 80.9011 40.7149C80.9673 40.7149 81.0831 40.7149 81.1547 40.7426C81.2705 40.7865 81.3145 40.8692 81.3201 41.1559L81.3698 43.2389H81.3476C81.2759 43.1729 80.6312 42.5115 80.3014 42.1863C79.596 41.4976 78.8696 40.7534 78.8089 40.6929C78.7263 40.6102 78.6602 40.5386 78.5994 40.5386C78.5499 40.5386 78.5168 40.6048 78.5168 40.6984L78.4728 43.4759C78.4673 43.8838 78.4508 44.0105 78.3239 44.0436C78.2578 44.0601 78.1696 44.0656 78.1036 44.0656C78.0594 44.0656 78.0264 44.0876 78.0264 44.1152C78.0264 44.1594 78.0705 44.1648 78.1365 44.1648C78.3846 44.1648 78.616 44.1483 78.6602 44.1483C78.7483 44.1483 78.9743 44.1648 79.2875 44.1648C79.3535 44.1648 79.3977 44.1537 79.3977 44.1152C79.3977 44.0876 79.3701 44.0656 79.315 44.0656C79.2379 44.0656 79.1441 44.0601 79.0614 44.0325C78.9688 43.9994 78.9081 43.8892 78.897 43.5256L78.8419 41.6132ZM83.2287 42.8036C83.2287 43.2555 83.2287 43.6302 83.2067 43.8231C83.1901 43.9609 83.1625 44.027 83.0632 44.049C83.0192 44.0601 82.9642 44.0656 82.8924 44.0656C82.8318 44.0656 82.8153 44.0932 82.8153 44.1152C82.8153 44.1483 82.8484 44.1648 82.9089 44.1648C83.102 44.1648 83.4326 44.1483 83.5427 44.1483C83.6751 44.1483 84.0057 44.1648 84.3252 44.1648C84.3805 44.1648 84.419 44.1483 84.419 44.1152C84.419 44.0932 84.397 44.0656 84.3418 44.0656C84.2701 44.0656 84.16 44.0601 84.0938 44.049C83.9506 44.027 83.9176 43.9554 83.901 43.8286C83.879 43.6302 83.879 43.2555 83.879 42.8036V41.9769C83.879 41.2661 83.879 41.1339 83.8899 40.9851C83.901 40.8196 83.9395 40.7534 84.0719 40.7315C84.1269 40.7206 84.1654 40.7149 84.2151 40.7149C84.2647 40.7149 84.2923 40.7041 84.2923 40.6598C84.2923 40.6322 84.2536 40.6213 84.1931 40.6213C84.0057 40.6213 83.6916 40.6322 83.5703 40.6322C83.4326 40.6322 83.102 40.6213 82.92 40.6213C82.8429 40.6213 82.8042 40.6322 82.8042 40.6598C82.8042 40.7041 82.8318 40.7149 82.8815 40.7149C82.942 40.7149 83.0027 40.7206 83.0578 40.7371C83.1625 40.77 83.2121 40.8253 83.2232 40.9851C83.2287 41.1339 83.2287 41.2661 83.2287 41.9769V42.8036ZM86.1163 42.8046C86.1163 43.2345 86.1163 43.6036 86.0943 43.8019C86.0778 43.9389 86.0502 44.027 85.9511 44.049C85.9124 44.0601 85.8518 44.0656 85.7803 44.0656C85.7195 44.0656 85.703 44.0932 85.703 44.1152C85.703 44.1483 85.7361 44.1648 85.7968 44.1648C85.9896 44.1648 86.3203 44.1483 86.4304 44.1483C86.5682 44.1483 86.8926 44.1648 87.2121 44.1648C87.2672 44.1648 87.3059 44.1483 87.3059 44.1152C87.3059 44.0932 87.2837 44.0656 87.2286 44.0656C87.157 44.0656 87.0469 44.0601 86.9807 44.049C86.8383 44.027 86.8106 43.9389 86.7941 43.8076C86.7721 43.6036 86.7667 43.2345 86.7667 42.8046V40.9098L87.3775 40.9207C87.8118 40.9261 87.9387 41.0695 87.9496 41.1908L87.9552 41.2404C87.9607 41.312 87.9718 41.334 88.0111 41.334C88.0388 41.334 88.0499 41.3066 88.0553 41.257C88.0553 41.1339 88.0664 40.7865 88.0664 40.6875C88.0664 40.6159 88.0608 40.5882 88.0277 40.5882C88.0111 40.5882 87.9718 40.5993 87.8946 40.6102C87.8229 40.6221 87.7182 40.6332 87.5639 40.6332H85.5983C85.4385 40.6332 85.2566 40.6278 85.1133 40.6112C84.9921 40.5937 84.9425 40.5552 84.904 40.5552C84.8763 40.5552 84.86 40.5828 84.8489 40.6433C84.8378 40.6829 84.7442 41.1357 84.7442 41.2128C84.7442 41.2624 84.7551 41.29 84.7882 41.29C84.8212 41.29 84.8323 41.2679 84.8434 41.2293C84.8543 41.1962 84.8763 41.1357 84.926 41.0695C84.9977 40.9649 85.1133 40.9318 85.3943 40.9261L86.1163 40.9098V42.8046ZM88.7507 42.6658C88.7507 43.3436 88.9435 43.691 89.1914 43.9058C89.5442 44.2144 90.0457 44.2253 90.2991 44.2253C90.6134 44.2253 90.9825 44.1759 91.3243 43.8892C91.7319 43.5532 91.7872 43.0021 91.7872 42.4784V41.9769C91.7872 41.2661 91.7926 41.1339 91.7981 40.9851C91.8092 40.8196 91.8423 40.7534 91.9744 40.7315C92.0351 40.7206 92.0627 40.7149 92.1178 40.7149C92.1729 40.7149 92.2005 40.6984 92.2005 40.6653C92.2005 40.6322 92.1675 40.6213 92.1013 40.6213C91.9139 40.6213 91.5887 40.6322 91.5336 40.6322C91.5282 40.6322 91.203 40.6213 90.9549 40.6213C90.8889 40.6213 90.8559 40.6322 90.8559 40.6653C90.8559 40.6984 90.8833 40.7149 90.9383 40.7149C90.9936 40.7149 91.0761 40.7206 91.1149 40.7315C91.2692 40.7756 91.3077 40.8253 91.3186 40.9851C91.3243 41.1339 91.3297 41.2661 91.3297 41.9769V42.5666C91.3297 43.046 91.3186 43.4539 91.0487 43.7073C90.8559 43.8947 90.6077 43.9554 90.3983 43.9554C90.2331 43.9554 90.0016 43.9389 89.7867 43.768C89.5497 43.5806 89.4173 43.3161 89.4173 42.6327V41.9769C89.4173 41.2661 89.4174 41.1339 89.4285 40.9851C89.4396 40.8196 89.4781 40.7534 89.6048 40.7315C89.6654 40.7206 89.6929 40.7149 89.7482 40.7149C89.7976 40.7149 89.8252 40.6984 89.8252 40.6653C89.8252 40.6322 89.7921 40.6213 89.7206 40.6213C89.5442 40.6213 89.219 40.6322 89.0978 40.6322C88.9546 40.6322 88.6294 40.6213 88.3704 40.6213C88.2988 40.6213 88.2657 40.6322 88.2657 40.6653C88.2657 40.6984 88.2931 40.7149 88.3484 40.7149C88.4144 40.7149 88.4971 40.7206 88.5356 40.7315C88.6899 40.7756 88.7341 40.8196 88.745 40.9851C88.7561 41.1339 88.7507 41.2661 88.7507 41.9769V42.6658ZM93.0381 42.8036C93.0381 43.2335 93.0381 43.6026 93.0161 43.8011C92.9996 43.9389 92.9719 44.027 92.8727 44.049C92.8287 44.0601 92.7736 44.0656 92.7018 44.0656C92.6413 44.0656 92.6248 44.0932 92.6248 44.1152C92.6248 44.1483 92.6578 44.1648 92.7184 44.1648C92.9114 44.1648 93.2198 44.1483 93.3137 44.1483C93.3853 44.1483 93.7875 44.1648 94.0687 44.1648C94.1293 44.1648 94.1678 44.1483 94.1678 44.1152C94.1678 44.0932 94.1458 44.0656 94.1073 44.0656C94.0465 44.0656 93.9418 44.0601 93.8702 44.049C93.7214 44.027 93.6994 43.9389 93.6828 43.8011C93.6608 43.6026 93.6554 43.2389 93.6554 42.8036V42.7374C93.6554 42.71 93.6719 42.6989 93.6939 42.6989L94.1292 42.71C94.1623 42.71 94.1899 42.7154 94.2174 42.743C94.2781 42.8147 94.482 43.1288 94.6749 43.3823C94.9448 43.746 95.1268 43.9663 95.3361 44.0712C95.4628 44.1372 95.5951 44.1648 95.8653 44.1648H96.328C96.3888 44.1648 96.4218 44.1537 96.4218 44.1152C96.4218 44.0932 96.3999 44.0656 96.3611 44.0656C96.3226 44.0656 96.2949 44.0656 96.2455 44.0547C96.1682 44.0381 95.9974 44.0159 95.7275 43.746C95.4354 43.4539 95.0937 43.0295 94.6638 42.5006C95.1377 42.1204 95.3361 41.8117 95.3361 41.4645C95.3361 41.1503 95.1322 40.9134 94.9944 40.8196C94.7354 40.6487 94.3828 40.6213 94.0742 40.6213C93.9253 40.6213 93.4845 40.6322 93.3191 40.6322C93.2198 40.6322 92.9114 40.6213 92.6578 40.6213C92.5862 40.6213 92.5477 40.6322 92.5477 40.6653C92.5477 40.6984 92.5806 40.7149 92.6302 40.7149C92.7019 40.7149 92.7845 40.7206 92.8231 40.7315C92.9774 40.7756 93.0216 40.8253 93.0326 40.9851C93.0381 41.1339 93.0381 41.2661 93.0381 41.9769V42.8036ZM93.6554 40.9465C93.6554 40.9077 93.6663 40.8912 93.6994 40.8803C93.749 40.8692 93.8648 40.8638 93.986 40.8638C94.2725 40.8638 94.7245 41.0346 94.7245 41.6959C94.7245 42.0816 94.5591 42.2856 94.4103 42.3903C94.3277 42.451 94.2616 42.4675 94.0687 42.4675C93.9475 42.4675 93.804 42.4564 93.6994 42.4233C93.6663 42.4068 93.6554 42.3903 93.6554 42.3406V40.9465ZM96.8186 42.8036C96.8186 43.2335 96.8186 43.6026 96.7966 43.8011C96.7801 43.9389 96.7524 44.027 96.6532 44.049C96.6092 44.0601 96.5542 44.0656 96.4823 44.0656C96.4218 44.0656 96.4053 44.0932 96.4053 44.1152C96.4053 44.1483 96.4384 44.1648 96.4989 44.1648C96.5981 44.1648 96.7194 44.1594 96.8352 44.1537C96.951 44.1537 97.0556 44.1483 97.1107 44.1483C97.254 44.1483 97.4359 44.1537 97.6727 44.1594C97.9097 44.1702 98.2018 44.1759 98.5655 44.1759C98.7475 44.1759 98.7915 44.1759 98.8246 44.0547C98.8522 43.9609 98.8907 43.6413 98.8907 43.5367C98.8907 43.487 98.8853 43.4263 98.8465 43.4263C98.8135 43.4263 98.8026 43.4483 98.7915 43.4979C98.7584 43.691 98.7033 43.79 98.5821 43.8451C98.4554 43.9003 98.2515 43.9058 98.1248 43.9058C97.6287 43.9058 97.4799 43.8342 97.469 43.5145C97.4633 43.3767 97.469 42.9799 97.469 42.8201V42.4453C97.469 42.4179 97.4744 42.3959 97.4964 42.3959C97.6176 42.3959 98.1687 42.4068 98.2569 42.4179C98.4389 42.4344 98.4994 42.506 98.527 42.5996C98.5379 42.6604 98.5379 42.7209 98.5436 42.7705C98.5436 42.7927 98.5545 42.809 98.5875 42.809C98.6317 42.809 98.6372 42.743 98.6372 42.7043C98.6372 42.6715 98.6483 42.484 98.6592 42.3903C98.6868 42.1534 98.6979 42.0761 98.6979 42.0485C98.6979 42.0211 98.6814 41.9991 98.6592 41.9991C98.6372 41.9991 98.6206 42.0265 98.5821 42.0596C98.5325 42.1038 98.4663 42.1204 98.3507 42.1312C98.2404 42.1423 97.6122 42.1423 97.5019 42.1423C97.4744 42.1423 97.469 42.1204 97.469 42.0927V40.9354C97.469 40.9077 97.4799 40.8912 97.5019 40.8912C97.6011 40.8912 98.1798 40.9023 98.2626 40.9134C98.5051 40.9354 98.5436 41.0016 98.5821 41.0843C98.6097 41.1394 98.6152 41.222 98.6152 41.2551C98.6152 41.2937 98.6206 41.3156 98.6537 41.3156C98.6922 41.3156 98.7033 41.2606 98.7088 41.2386C98.7199 41.1833 98.7309 40.9796 98.7364 40.9299C98.7475 40.7149 98.7749 40.6598 98.7749 40.6267C98.7749 40.6048 98.7695 40.5828 98.7418 40.5828C98.7199 40.5828 98.6922 40.5993 98.6648 40.6048C98.6263 40.6102 98.549 40.6267 98.4608 40.6322C98.3673 40.6378 97.2925 40.6322 97.1381 40.6322C97.0004 40.6322 96.692 40.6213 96.4384 40.6213C96.3668 40.6213 96.3282 40.6322 96.3282 40.6653C96.3282 40.6984 96.3611 40.7149 96.4107 40.7149C96.4823 40.7149 96.5651 40.7206 96.6036 40.7315C96.7579 40.7756 96.8021 40.8253 96.8132 40.9851C96.8186 41.1339 96.8186 41.2661 96.8186 41.9769V42.8036ZM101.646 42.8036C101.646 43.2335 101.646 43.6026 101.624 43.8011C101.608 43.9389 101.58 44.027 101.481 44.049C101.437 44.0601 101.382 44.0656 101.31 44.0656C101.25 44.0656 101.233 44.0932 101.233 44.1152C101.233 44.1483 101.266 44.1648 101.327 44.1648C101.52 44.1648 101.828 44.1483 101.922 44.1483C101.993 44.1483 102.396 44.1648 102.677 44.1648C102.737 44.1648 102.776 44.1483 102.776 44.1152C102.776 44.0932 102.754 44.0656 102.715 44.0656C102.655 44.0656 102.55 44.0601 102.478 44.049C102.33 44.027 102.308 43.9389 102.291 43.8011C102.269 43.6026 102.264 43.2389 102.264 42.8036V42.7374C102.264 42.71 102.28 42.6989 102.302 42.6989L102.737 42.71C102.77 42.71 102.798 42.7154 102.826 42.743C102.886 42.8147 103.09 43.1288 103.283 43.3823C103.553 43.746 103.735 43.9663 103.944 44.0712C104.071 44.1372 104.203 44.1648 104.473 44.1648H104.936C104.997 44.1648 105.03 44.1537 105.03 44.1152C105.03 44.0932 105.008 44.0656 104.969 44.0656C104.931 44.0656 104.903 44.0656 104.854 44.0547C104.776 44.0381 104.606 44.0159 104.336 43.746C104.044 43.4539 103.702 43.0295 103.272 42.5006C103.746 42.1204 103.944 41.8117 103.944 41.4645C103.944 41.1503 103.74 40.9134 103.603 40.8196C103.344 40.6487 102.991 40.6213 102.682 40.6213C102.533 40.6213 102.093 40.6322 101.927 40.6322C101.828 40.6322 101.52 40.6213 101.266 40.6213C101.194 40.6213 101.156 40.6322 101.156 40.6653C101.156 40.6984 101.189 40.7149 101.238 40.7149C101.31 40.7149 101.393 40.7206 101.431 40.7315C101.586 40.7756 101.63 40.8253 101.641 40.9851C101.646 41.1339 101.646 41.2661 101.646 41.9769V42.8036ZM102.264 40.9465C102.264 40.9077 102.274 40.8912 102.308 40.8803C102.357 40.8692 102.473 40.8638 102.594 40.8638C102.881 40.8638 103.333 41.0346 103.333 41.6959C103.333 42.0816 103.167 42.2856 103.018 42.3903C102.936 42.451 102.87 42.4675 102.677 42.4675C102.556 42.4675 102.412 42.4564 102.308 42.4233C102.274 42.4068 102.264 42.3903 102.264 42.3406V40.9465ZM105.427 42.8036C105.427 43.2335 105.427 43.6026 105.405 43.8011C105.388 43.9389 105.361 44.027 105.261 44.049C105.217 44.0601 105.162 44.0656 105.091 44.0656C105.03 44.0656 105.013 44.0932 105.013 44.1152C105.013 44.1483 105.047 44.1648 105.107 44.1648C105.206 44.1648 105.328 44.1594 105.443 44.1537C105.559 44.1537 105.664 44.1483 105.719 44.1483C105.862 44.1483 106.044 44.1537 106.281 44.1594C106.518 44.1702 106.81 44.1759 107.174 44.1759C107.356 44.1759 107.4 44.1759 107.433 44.0547C107.46 43.9609 107.499 43.6413 107.499 43.5367C107.499 43.487 107.493 43.4263 107.455 43.4263C107.422 43.4263 107.411 43.4483 107.4 43.4979C107.367 43.691 107.312 43.79 107.19 43.8451C107.064 43.9003 106.86 43.9058 106.733 43.9058C106.237 43.9058 106.088 43.8342 106.077 43.5145C106.072 43.3767 106.077 42.9799 106.077 42.8201V42.4453C106.077 42.4179 106.083 42.3959 106.105 42.3959C106.226 42.3959 106.777 42.4068 106.865 42.4179C107.047 42.4344 107.108 42.506 107.135 42.5996C107.146 42.6604 107.146 42.7209 107.152 42.7705C107.152 42.7927 107.163 42.809 107.196 42.809C107.24 42.809 107.245 42.743 107.245 42.7043C107.245 42.6715 107.256 42.484 107.267 42.3903C107.295 42.1534 107.306 42.0761 107.306 42.0485C107.306 42.0211 107.29 41.9991 107.267 41.9991C107.245 41.9991 107.229 42.0265 107.19 42.0596C107.141 42.1038 107.075 42.1204 106.959 42.1312C106.849 42.1423 106.22 42.1423 106.11 42.1423C106.083 42.1423 106.077 42.1204 106.077 42.0927V40.9354C106.077 40.9077 106.088 40.8912 106.11 40.8912C106.209 40.8912 106.788 40.9023 106.871 40.9134C107.113 40.9354 107.152 41.0016 107.19 41.0843C107.218 41.1394 107.223 41.222 107.223 41.2551C107.223 41.2937 107.229 41.3156 107.262 41.3156C107.3 41.3156 107.312 41.2606 107.317 41.2386C107.328 41.1833 107.339 40.9796 107.345 40.9299C107.356 40.7149 107.383 40.6598 107.383 40.6267C107.383 40.6048 107.378 40.5828 107.35 40.5828C107.328 40.5828 107.3 40.5993 107.273 40.6048C107.234 40.6102 107.157 40.6267 107.069 40.6322C106.975 40.6378 105.901 40.6322 105.746 40.6322C105.609 40.6322 105.3 40.6213 105.047 40.6213C104.975 40.6213 104.936 40.6322 104.936 40.6653C104.936 40.6984 104.969 40.7149 105.019 40.7149C105.091 40.7149 105.173 40.7206 105.212 40.7315C105.366 40.7756 105.41 40.8253 105.421 40.9851C105.427 41.1339 105.427 41.2661 105.427 41.9769V42.8036ZM108.221 42.4125C108.127 42.4125 108.105 42.4179 108.089 42.484L108.006 42.8643C107.995 42.9194 108.006 42.9634 108.05 42.9634C108.094 42.9634 108.182 42.9028 108.292 42.8752C108.485 42.8201 109.494 42.6438 109.714 42.6107C109.869 42.5831 109.962 42.5666 109.962 42.4895C109.962 42.4233 109.885 42.4125 109.786 42.4125H108.221ZM110.943 42.8036C110.943 43.2555 110.943 43.6302 110.921 43.8231C110.905 43.9609 110.877 44.027 110.778 44.049C110.734 44.0601 110.679 44.0656 110.607 44.0656C110.547 44.0656 110.53 44.0932 110.53 44.1152C110.53 44.1483 110.563 44.1648 110.624 44.1648C110.817 44.1648 111.147 44.1483 111.257 44.1483C111.39 44.1483 111.72 44.1648 112.04 44.1648C112.095 44.1648 112.134 44.1483 112.134 44.1152C112.134 44.0932 112.112 44.0656 112.057 44.0656C111.985 44.0656 111.875 44.0601 111.809 44.049C111.665 44.027 111.632 43.9554 111.616 43.8286C111.594 43.6302 111.594 43.2555 111.594 42.8036V41.9769C111.594 41.2661 111.594 41.1339 111.605 40.9851C111.616 40.8196 111.654 40.7534 111.787 40.7315C111.842 40.7206 111.88 40.7149 111.93 40.7149C111.979 40.7149 112.007 40.7041 112.007 40.6598C112.007 40.6322 111.968 40.6213 111.908 40.6213C111.72 40.6213 111.406 40.6322 111.285 40.6322C111.147 40.6322 110.817 40.6213 110.635 40.6213C110.558 40.6213 110.519 40.6322 110.519 40.6598C110.519 40.7041 110.547 40.7149 110.596 40.7149C110.657 40.7149 110.717 40.7206 110.773 40.7371C110.877 40.77 110.927 40.8253 110.938 40.9851C110.943 41.1339 110.943 41.2661 110.943 41.9769V42.8036ZM112.889 43.6964C112.867 43.8507 112.823 44.0381 112.69 44.0547C112.613 44.0656 112.58 44.0656 112.542 44.0656C112.492 44.0656 112.464 44.0876 112.464 44.1098C112.464 44.1537 112.503 44.1648 112.553 44.1648C112.707 44.1648 112.938 44.1483 113.032 44.1483C113.12 44.1483 113.341 44.1648 113.545 44.1648C113.616 44.1648 113.66 44.1537 113.66 44.1098C113.66 44.0876 113.627 44.0656 113.583 44.0656C113.539 44.0656 113.495 44.0601 113.412 44.0436C113.33 44.027 113.263 43.994 113.263 43.9058C113.263 43.8286 113.269 43.768 113.28 43.6853L113.512 41.8779H113.528C113.688 42.2028 113.974 42.7705 114.013 42.8587C114.068 42.991 114.454 43.7073 114.57 43.9223C114.647 44.0656 114.702 44.1594 114.762 44.1594C114.817 44.1594 114.845 44.1152 114.955 43.8947L115.997 41.8226H116.014L116.283 43.8451C116.3 43.9774 116.289 44.0325 116.261 44.0436C116.228 44.0547 116.206 44.0712 116.206 44.0932C116.206 44.1206 116.234 44.1428 116.35 44.1483C116.542 44.1594 117.231 44.1759 117.353 44.1759C117.424 44.1759 117.479 44.1594 117.479 44.1206C117.479 44.0932 117.446 44.0767 117.402 44.0767C117.341 44.0767 117.264 44.0712 117.127 44.0325C116.978 43.9885 116.934 43.8616 116.89 43.5697L116.449 40.6875C116.432 40.5882 116.377 40.5386 116.338 40.5386C116.295 40.5386 116.25 40.5772 116.212 40.6544L114.911 43.2776L113.611 40.6875C113.545 40.5606 113.512 40.5386 113.462 40.5386C113.423 40.5386 113.379 40.5828 113.368 40.6598L112.889 43.6964ZM119.678 42.9799C119.7 42.9799 119.717 42.9855 119.728 43.013L120.103 43.9609C120.125 44.0159 120.092 44.0601 120.058 44.0656C120.009 44.0712 119.998 44.0876 119.998 44.1152C119.998 44.1483 120.053 44.1483 120.141 44.1537C120.549 44.1648 120.902 44.1648 121.073 44.1648C121.254 44.1648 121.282 44.1537 121.282 44.1152C121.282 44.0821 121.26 44.0656 121.216 44.0656C121.161 44.0656 121.106 44.0601 121.034 44.049C120.946 44.0325 120.808 43.972 120.621 43.5476C120.312 42.8367 119.502 40.9408 119.386 40.6818C119.337 40.5772 119.315 40.5332 119.243 40.5332C119.193 40.5332 119.155 40.5882 119.1 40.7206L117.832 43.6468C117.733 43.8838 117.65 44.027 117.43 44.0601C117.386 44.0601 117.331 44.0656 117.287 44.0656C117.248 44.0656 117.231 44.0876 117.231 44.1152C117.231 44.1537 117.259 44.1648 117.32 44.1648C117.573 44.1648 117.832 44.1483 117.882 44.1483C118.036 44.1483 118.262 44.1648 118.422 44.1648C118.471 44.1648 118.499 44.1537 118.499 44.1152C118.499 44.0876 118.488 44.0656 118.427 44.0656H118.356C118.207 44.0656 118.163 44.0159 118.163 43.9334C118.163 43.8781 118.185 43.7626 118.234 43.6468L118.494 43.013C118.504 42.9855 118.51 42.9799 118.538 42.9799H119.678ZM118.637 42.7209C118.62 42.7209 118.609 42.71 118.62 42.6878L119.089 41.5196C119.094 41.503 119.1 41.4754 119.116 41.4754C119.127 41.4754 119.133 41.503 119.138 41.5196L119.596 42.6935C119.601 42.71 119.596 42.7209 119.574 42.7209H118.637Z" fill="white"/>
<path fill-rule="evenodd" clip-rule="evenodd" d="M124.77 43.3327C124.77 43.1011 124.77 42.9139 124.776 42.7705C124.782 42.6053 124.831 42.5391 124.963 42.5171C125.018 42.506 125.057 42.5006 125.096 42.5006C125.129 42.5006 125.156 42.4784 125.156 42.451C125.156 42.4125 125.123 42.4068 125.057 42.4068C124.897 42.4068 124.644 42.4179 124.489 42.4179C124.346 42.4179 123.999 42.4068 123.745 42.4068C123.679 42.4068 123.641 42.4125 123.641 42.451C123.641 42.4784 123.674 42.5006 123.718 42.5006C123.784 42.5006 123.867 42.506 123.905 42.5171C124.06 42.5611 124.109 42.6107 124.115 42.7705C124.12 42.9139 124.12 43.0902 124.12 43.3216V43.7515C124.12 43.8342 124.098 43.8838 124.026 43.9169C123.911 43.9663 123.812 43.9663 123.685 43.9663C122.649 43.9663 121.998 43.2335 121.998 42.225C121.998 41.6517 122.175 41.3046 122.445 41.0843C122.781 40.8142 123.117 40.8087 123.382 40.8087C123.927 40.8087 124.291 41.0181 124.434 41.1668C124.561 41.2991 124.589 41.448 124.6 41.5527C124.605 41.5912 124.616 41.6132 124.649 41.6132C124.688 41.6132 124.715 41.5801 124.715 41.5085C124.715 40.9188 124.748 40.7922 124.748 40.7371C124.748 40.7041 124.737 40.6875 124.682 40.6818C124.566 40.6764 124.396 40.6487 124.297 40.6322C124.197 40.6102 123.773 40.5552 123.437 40.5552C123.029 40.5552 122.594 40.5882 122.131 40.8584C121.684 41.1174 121.282 41.6408 121.282 42.3903C121.282 43.6853 122.335 44.2253 123.525 44.2253C123.905 44.2253 124.385 44.1759 124.71 44.0159C124.77 43.9829 124.77 43.9774 124.77 43.8507V43.3327ZM126.126 42.8036C126.126 43.2555 126.126 43.6302 126.104 43.8231C126.088 43.9609 126.06 44.027 125.961 44.049C125.917 44.0601 125.862 44.0656 125.79 44.0656C125.729 44.0656 125.713 44.0932 125.713 44.1152C125.713 44.1483 125.746 44.1648 125.806 44.1648C125.999 44.1648 126.33 44.1483 126.44 44.1483C126.573 44.1483 126.903 44.1648 127.223 44.1648C127.278 44.1648 127.317 44.1483 127.317 44.1152C127.317 44.0932 127.295 44.0656 127.239 44.0656C127.168 44.0656 127.058 44.0601 126.991 44.049C126.848 44.027 126.815 43.9554 126.799 43.8286C126.777 43.6302 126.777 43.2555 126.777 42.8036V41.9769C126.777 41.2661 126.777 41.1339 126.787 40.9851C126.799 40.8196 126.837 40.7534 126.969 40.7315C127.024 40.7206 127.063 40.7149 127.113 40.7149C127.162 40.7149 127.19 40.704 127.19 40.6598C127.19 40.6322 127.151 40.6213 127.091 40.6213C126.903 40.6213 126.589 40.6322 126.468 40.6322C126.33 40.6322 125.999 40.6213 125.818 40.6213C125.74 40.6213 125.702 40.6322 125.702 40.6598C125.702 40.704 125.729 40.7149 125.779 40.7149C125.84 40.7149 125.9 40.7206 125.955 40.7371C126.06 40.77 126.11 40.8253 126.121 40.9851C126.126 41.1339 126.126 41.2661 126.126 41.9769V42.8036ZM128.617 41.6132H128.634C128.727 41.6959 129.239 42.2636 129.768 42.7705C130.275 43.2611 130.88 43.8396 131.183 44.1206C131.233 44.1702 131.3 44.2199 131.383 44.2199C131.421 44.2199 131.46 44.1759 131.46 44.0712L131.515 41.1174C131.52 40.8527 131.559 40.77 131.691 40.7315C131.752 40.7149 131.79 40.7149 131.84 40.7149C131.895 40.7149 131.923 40.6929 131.923 40.6653C131.923 40.6267 131.879 40.6213 131.813 40.6213C131.576 40.6213 131.394 40.6322 131.339 40.6322C131.233 40.6322 130.974 40.6213 130.72 40.6213C130.649 40.6213 130.599 40.6267 130.599 40.6653C130.599 40.6929 130.616 40.7149 130.676 40.7149C130.742 40.7149 130.858 40.7149 130.93 40.7426C131.046 40.7865 131.09 40.8692 131.095 41.1559L131.145 43.2389H131.123C131.051 43.1729 130.406 42.5115 130.077 42.1863C129.371 41.4976 128.645 40.7534 128.584 40.6929C128.501 40.6102 128.435 40.5386 128.375 40.5386C128.325 40.5386 128.292 40.6048 128.292 40.6984L128.248 43.4759C128.242 43.8838 128.226 44.0105 128.099 44.0436C128.033 44.0601 127.945 44.0656 127.879 44.0656C127.835 44.0656 127.801 44.0876 127.801 44.1152C127.801 44.1594 127.846 44.1648 127.912 44.1648C128.16 44.1648 128.391 44.1483 128.435 44.1483C128.523 44.1483 128.749 44.1648 129.063 44.1648C129.129 44.1648 129.173 44.1537 129.173 44.1152C129.173 44.0876 129.145 44.0656 129.09 44.0656C129.013 44.0656 128.919 44.0601 128.837 44.0325C128.744 43.9994 128.683 43.8892 128.672 43.5256L128.617 41.6132ZM133.004 42.8036C133.004 43.2335 133.004 43.6026 132.982 43.8011C132.965 43.9389 132.938 44.027 132.838 44.049C132.794 44.0601 132.739 44.0656 132.667 44.0656C132.607 44.0656 132.59 44.0932 132.59 44.1152C132.59 44.1483 132.624 44.1648 132.684 44.1648C132.783 44.1648 132.905 44.1594 133.02 44.1537C133.136 44.1537 133.241 44.1483 133.296 44.1483C133.439 44.1483 133.621 44.1537 133.858 44.1594C134.095 44.1702 134.387 44.1759 134.751 44.1759C134.933 44.1759 134.977 44.1759 135.01 44.0547C135.037 43.9609 135.076 43.6413 135.076 43.5367C135.076 43.487 135.07 43.4263 135.032 43.4263C134.999 43.4263 134.988 43.4483 134.977 43.4979C134.944 43.691 134.888 43.79 134.767 43.8451C134.641 43.9003 134.437 43.9058 134.31 43.9058C133.814 43.9058 133.665 43.8342 133.654 43.5145C133.648 43.3767 133.654 42.9799 133.654 42.8201V42.4453C133.654 42.4179 133.66 42.3959 133.682 42.3959C133.803 42.3959 134.354 42.4068 134.442 42.4179C134.624 42.4344 134.685 42.506 134.712 42.5996C134.723 42.6604 134.723 42.7209 134.729 42.7705C134.729 42.7927 134.74 42.809 134.773 42.809C134.817 42.809 134.822 42.743 134.822 42.7043C134.822 42.6715 134.833 42.484 134.844 42.3903C134.872 42.1534 134.883 42.0761 134.883 42.0485C134.883 42.0211 134.867 41.9991 134.844 41.9991C134.822 41.9991 134.806 42.0265 134.767 42.0596C134.718 42.1038 134.651 42.1204 134.536 42.1312C134.426 42.1423 133.797 42.1423 133.687 42.1423C133.66 42.1423 133.654 42.1204 133.654 42.0927V40.9354C133.654 40.9077 133.665 40.8912 133.687 40.8912C133.786 40.8912 134.365 40.9023 134.448 40.9134C134.69 40.9354 134.729 41.0016 134.767 41.0843C134.795 41.1394 134.8 41.222 134.8 41.2551C134.8 41.2937 134.806 41.3156 134.839 41.3156C134.877 41.3156 134.888 41.2606 134.894 41.2386C134.905 41.1833 134.916 40.9796 134.922 40.9299C134.933 40.7149 134.96 40.6598 134.96 40.6267C134.96 40.6048 134.955 40.5828 134.927 40.5828C134.905 40.5828 134.877 40.5993 134.85 40.6048C134.811 40.6102 134.734 40.6267 134.646 40.6322C134.552 40.6378 133.478 40.6322 133.323 40.6322C133.186 40.6322 132.877 40.6213 132.624 40.6213C132.552 40.6213 132.513 40.6322 132.513 40.6653C132.513 40.6984 132.546 40.7149 132.596 40.7149C132.667 40.7149 132.75 40.7206 132.789 40.7315C132.943 40.7756 132.987 40.8253 132.998 40.9851C133.004 41.1339 133.004 41.2661 133.004 41.9769V42.8036ZM136.068 42.8036C136.068 43.2335 136.068 43.6026 136.046 43.8011C136.029 43.9389 136.002 44.027 135.902 44.049C135.858 44.0601 135.803 44.0656 135.731 44.0656C135.671 44.0656 135.654 44.0932 135.654 44.1152C135.654 44.1483 135.688 44.1648 135.748 44.1648C135.847 44.1648 135.969 44.1594 136.084 44.1537C136.2 44.1537 136.305 44.1483 136.36 44.1483C136.481 44.1483 136.657 44.1594 136.85 44.1759C137.043 44.1868 137.253 44.2033 137.429 44.2033C138.322 44.2033 138.834 43.8727 139.055 43.6522C139.33 43.3823 139.584 42.9359 139.584 42.3463C139.584 41.7895 139.369 41.3984 139.126 41.1559C138.597 40.6213 137.782 40.6213 137.175 40.6213C136.883 40.6213 136.536 40.6322 136.387 40.6322C136.25 40.6322 135.941 40.6213 135.688 40.6213C135.616 40.6213 135.577 40.6322 135.577 40.6653C135.577 40.6984 135.61 40.7149 135.66 40.7149C135.731 40.7149 135.814 40.7206 135.853 40.7315C136.007 40.7756 136.051 40.8253 136.062 40.9851C136.068 41.1339 136.068 41.2661 136.068 41.9769V42.8036ZM136.718 41.9053C136.718 41.5362 136.718 41.1503 136.724 40.9905C136.724 40.9354 136.74 40.9134 136.784 40.8969C136.823 40.8749 136.983 40.8638 137.082 40.8638C137.462 40.8638 137.991 40.9134 138.437 41.3102C138.652 41.4976 138.889 41.8833 138.889 42.4784C138.889 42.9634 138.79 43.3823 138.476 43.6413C138.184 43.8838 137.859 43.9609 137.418 43.9609C137.038 43.9609 136.845 43.8616 136.784 43.7735C136.746 43.7238 136.735 43.5586 136.729 43.4428C136.724 43.3492 136.718 42.991 136.718 42.4949V41.9053Z" fill="white"/>
<defs>
<linearGradient id="paint0_linear_280_2" x1="16.7917" y1="43.9491" x2="16.7917" y2="50.6563" gradientUnits="userSpaceOnUse">
<stop stop-color="#E30016"/>
<stop offset="1" stop-color="#FF2453"/>
</linearGradient>
<linearGradient id="paint1_linear_280_2" x1="16.7643" y1="0.0835163" x2="16.7643" y2="48.0697" gradientUnits="userSpaceOnUse">
<stop stop-color="#E30016"/>
<stop offset="1" stop-color="#FF2453"/>
</linearGradient>
<linearGradient id="paint2_linear_280_2" x1="29.5151" y1="28.5633" x2="29.5151" y2="44.8133" gradientUnits="userSpaceOnUse">
<stop stop-color="#E30016"/>
<stop offset="1" stop-color="#FF2453"/>
</linearGradient>
<linearGradient id="paint3_linear_280_2" x1="0" y1="-3.54925e-08" x2="0" y2="11.2885" gradientUnits="userSpaceOnUse">
<stop stop-color="#E30016"/>
<stop offset="1" stop-color="#FF2453"/>
</linearGradient>
</defs>
</svg>
